# Blender v3.1.2 OBJ File: 'CauldronCollider.blend'
# www.blender.org
o Cylinder
v 0.000000 0.000000 -1.000000
v 0.000000 1.238158 -1.189445
v 0.500000 0.000000 -0.866025
v 0.594723 1.238158 -1.030090
v 0.866025 0.000000 -0.500000
v 1.030090 1.238158 -0.594723
v 1.000000 0.000000 0.000000
v 1.189445 1.238158 0.000000
v 0.866025 0.000000 0.500000
v 1.030090 1.238158 0.594723
v 0.500000 0.000000 0.866025
v 0.594723 1.238158 1.030090
v -0.000000 0.000000 1.000000
v -0.000000 1.238158 1.189445
v -0.500000 0.000000 0.866025
v -0.594723 1.238158 1.030090
v -0.866025 0.000000 0.500000
v -1.030090 1.238158 0.594723
v -1.000000 0.000000 -0.000000
v -1.189445 1.238158 -0.000000
v -0.866025 0.000000 -0.500000
v -1.030090 1.238158 -0.594723
v -0.500000 0.000000 -0.866025
v -0.594723 1.238158 -1.030090
v 0.524774 1.238158 -0.908935
v 0.000000 1.238158 -1.049548
v 0.908935 1.238158 -0.524774
v 1.049548 1.238158 0.000000
v 0.908935 1.238158 0.524774
v 0.524774 1.238158 0.908935
v -0.000000 1.238158 1.049548
v -0.524774 1.238158 0.908935
v -0.908935 1.238158 0.524774
v -1.049548 1.238158 -0.000000
v -0.908935 1.238158 -0.524774
v -0.524774 1.238158 -0.908935
v 0.441192 0.123893 -0.764167
v -0.000000 0.123893 -0.882384
v 0.764167 0.123893 -0.441192
v 0.882384 0.123893 0.000000
v 0.764167 0.123893 0.441192
v 0.441192 0.123893 0.764167
v -0.000000 0.123893 0.882384
v -0.441192 0.123893 0.764167
v -0.764167 0.123893 0.441192
v -0.882384 0.123893 -0.000000
v -0.764167 0.123893 -0.441192
v -0.441192 0.123893 -0.764167
v 0.000000 0.619079 -1.206551
v 0.603276 0.619079 -1.044904
v 1.044904 0.619079 -0.603276
v 1.206551 0.619079 0.000000
v 1.044904 0.619079 0.603276
v 0.603276 0.619079 1.044904
v -0.000000 0.619079 1.206551
v -0.603276 0.619079 1.044904
v -1.044904 0.619079 0.603276
v -1.206551 0.619079 -0.000000
v -1.044904 0.619079 -0.603276
v -0.603276 0.619079 -1.044904
vt 1.000000 0.750000
vt 1.000000 1.000000
vt 0.916667 1.000000
vt 0.916667 0.750000
vt 0.833333 1.000000
vt 0.833333 0.750000
vt 0.750000 1.000000
vt 0.750000 0.750000
vt 0.666667 1.000000
vt 0.666667 0.750000
vt 0.583333 1.000000
vt 0.583333 0.750000
vt 0.500000 1.000000
vt 0.500000 0.750000
vt 0.416667 1.000000
vt 0.416667 0.750000
vt 0.333333 1.000000
vt 0.333333 0.750000
vt 0.250000 1.000000
vt 0.250000 0.750000
vt 0.166667 1.000000
vt 0.166667 0.750000
vt 0.500000 1.000000
vt 0.416667 1.000000
vt 0.083333 1.000000
vt 0.083333 0.750000
vt 0.000000 1.000000
vt 0.000000 0.750000
vt 0.750000 0.490000
vt 0.870000 0.457846
vt 0.957846 0.370000
vt 0.990000 0.250000
vt 0.957846 0.130000
vt 0.870000 0.042154
vt 0.750000 0.010000
vt 0.630000 0.042154
vt 0.542154 0.130000
vt 0.510000 0.250000
vt 0.542154 0.370000
vt 0.630000 0.457846
vt 0.000000 1.000000
vt 0.083333 1.000000
vt 0.083333 1.000000
vt 0.000000 1.000000
vt 0.583333 1.000000
vt 0.666667 1.000000
vt 0.750000 1.000000
vt 1.000000 1.000000
vt 0.916667 1.000000
vt 0.833333 1.000000
vt 0.166667 1.000000
vt 0.250000 1.000000
vt 0.333333 1.000000
vt 0.370000 0.457846
vt 0.250000 0.490000
vt 0.130000 0.457846
vt 0.042154 0.370000
vt 0.010000 0.250000
vt 0.042154 0.130000
vt 0.130000 0.042154
vt 0.250000 0.010000
vt 0.370000 0.042154
vt 0.457846 0.130000
vt 0.490000 0.250000
vt 0.457846 0.370000
vt 0.916667 1.000000
vt 0.833333 1.000000
vt 0.333333 1.000000
vt 0.250000 1.000000
vt 0.583333 1.000000
vt 0.500000 1.000000
vt 0.750000 1.000000
vt 0.166667 1.000000
vt 0.416667 1.000000
vt 0.666667 1.000000
vt 1.000000 1.000000
vt 0.083333 0.500000
vt 0.000000 0.500000
vt 0.166667 0.500000
vt 0.250000 0.500000
vt 0.333333 0.500000
vt 0.416667 0.500000
vt 0.500000 0.500000
vt 0.583333 0.500000
vt 0.666667 0.500000
vt 0.750000 0.500000
vt 0.833333 0.500000
vt 0.916667 0.500000
vt 1.000000 0.500000
vn 0.2587 0.0267 -0.9656
vn 0.7069 0.0267 -0.7069
vn 0.9656 0.0267 -0.2587
vn 0.9656 0.0267 0.2587
vn 0.7069 0.0267 0.7069
vn 0.2587 0.0267 0.9656
vn -0.2587 0.0267 0.9656
vn -0.7069 0.0267 0.7069
vn -0.9656 0.0267 0.2587
vn -0.9656 0.0267 -0.2587
vn 0.0000 1.0000 0.0000
vn -0.7069 0.0267 -0.7069
vn -0.2587 0.0267 -0.9656
vn 0.0000 -1.0000 0.0000
vn 0.2561 0.1434 0.9559
vn -0.6998 0.1434 0.6998
vn 0.9559 0.1434 -0.2561
vn -0.2561 0.1434 -0.9559
vn -0.9559 0.1434 0.2561
vn 0.9559 0.1434 0.2561
vn 0.2561 0.1434 -0.9559
vn -0.9559 0.1434 -0.2561
vn 0.6998 0.1434 0.6998
vn -0.2561 0.1434 0.9559
vn 0.6998 0.1434 -0.6998
vn -0.6998 0.1434 -0.6998
vn -0.2463 -0.3067 -0.9194
vn -0.6730 -0.3067 -0.6730
vn -0.9194 -0.3067 -0.2463
vn -0.9194 -0.3067 0.2463
vn -0.6730 -0.3067 0.6730
vn -0.2463 -0.3067 0.9194
vn 0.2463 -0.3067 0.9194
vn 0.6730 -0.3067 0.6730
vn 0.9194 -0.3067 0.2463
vn 0.9194 -0.3067 -0.2463
vn 0.6730 -0.3067 -0.6730
vn 0.2463 -0.3067 -0.9194
s off
f 49/1/1 2/2/1 4/3/1 50/4/1
f 50/4/2 4/3/2 6/5/2 51/6/2
f 51/6/3 6/5/3 8/7/3 52/8/3
f 52/8/4 8/7/4 10/9/4 53/10/4
f 53/10/5 10/9/5 12/11/5 54/12/5
f 54/12/6 12/11/6 14/13/6 55/14/6
f 55/14/7 14/13/7 16/15/7 56/16/7
f 56/16/8 16/15/8 18/17/8 57/18/8
f 57/18/9 18/17/9 20/19/9 58/20/9
f 58/20/10 20/19/10 22/21/10 59/22/10
f 16/15/11 14/13/11 31/23/11 32/24/11
f 59/22/12 22/21/12 24/25/12 60/26/12
f 60/26/13 24/25/13 2/27/13 49/28/13
f 1/29/14 3/30/14 5/31/14 7/32/14 9/33/14 11/34/14 13/35/14 15/36/14 17/37/14 19/38/14 21/39/14 23/40/14
f 26/41/15 36/42/15 48/43/15 38/44/15
f 14/13/11 12/11/11 30/45/11 31/23/11
f 12/11/11 10/9/11 29/46/11 30/45/11
f 10/9/11 8/7/11 28/47/11 29/46/11
f 2/27/11 24/25/11 36/42/11 26/41/11
f 4/3/11 2/2/11 26/48/11 25/49/11
f 8/7/11 6/5/11 27/50/11 28/47/11
f 24/25/11 22/21/11 35/51/11 36/42/11
f 6/5/11 4/3/11 25/49/11 27/50/11
f 22/21/11 20/19/11 34/52/11 35/51/11
f 20/19/11 18/17/11 33/53/11 34/52/11
f 18/17/11 16/15/11 32/24/11 33/53/11
f 37/54/11 38/55/11 48/56/11 47/57/11 46/58/11 45/59/11 44/60/11 43/61/11 42/62/11 41/63/11 40/64/11 39/65/11
f 27/50/16 25/49/16 37/66/16 39/67/16
f 34/52/17 33/53/17 45/68/17 46/69/17
f 31/23/18 30/45/18 42/70/18 43/71/18
f 28/47/19 27/50/19 39/67/19 40/72/19
f 35/51/20 34/52/20 46/69/20 47/73/20
f 32/24/21 31/23/21 43/71/21 44/74/21
f 29/46/22 28/47/22 40/72/22 41/75/22
f 36/42/23 35/51/23 47/73/23 48/43/23
f 25/49/24 26/48/24 38/76/24 37/66/24
f 33/53/25 32/24/25 44/74/25 45/68/25
f 30/45/26 29/46/26 41/75/26 42/70/26
f 23/77/27 60/26/27 49/28/27 1/78/27
f 21/79/28 59/22/28 60/26/28 23/77/28
f 19/80/29 58/20/29 59/22/29 21/79/29
f 17/81/30 57/18/30 58/20/30 19/80/30
f 15/82/31 56/16/31 57/18/31 17/81/31
f 13/83/32 55/14/32 56/16/32 15/82/32
f 11/84/33 54/12/33 55/14/33 13/83/33
f 9/85/34 53/10/34 54/12/34 11/84/34
f 7/86/35 52/8/35 53/10/35 9/85/35
f 5/87/36 51/6/36 52/8/36 7/86/36
f 3/88/37 50/4/37 51/6/37 5/87/37
f 1/89/38 49/1/38 50/4/38 3/88/38
