# Blender v3.1.2 OBJ File: 'PumpkinFrag.blend'
# www.blender.org
o Cube
v 0.092584 0.561157 0.099626
v 0.728099 -0.609168 0.099626
v -0.542930 -0.609168 0.099626
v 0.092584 0.561157 -0.130692
v 0.728099 -0.609168 -0.130692
v -0.542930 -0.609168 -0.130692
v 0.387574 0.227795 0.051359
v 0.387574 0.227795 -0.178959
v 0.565535 -0.309800 0.099626
v 0.565535 -0.309800 -0.130692
v -0.217802 -0.010432 0.099626
v -0.217802 -0.010432 -0.130692
vt 0.037358 0.217264
vt 0.037358 0.246581
vt 0.068633 0.246581
vt 0.068633 0.217264
vt 0.544894 0.028575
vt 0.106711 0.031084
vt 0.558553 0.243896
vt 0.779233 0.347834
vt 0.068633 0.186555
vt 0.037358 0.186555
vt 0.037358 0.186555
vt 0.068633 0.186555
vt 0.779837 0.347867
vt 0.558959 0.243919
vt 0.106711 0.031084
vt 0.544894 0.028575
vt 0.068633 0.216568
vt 0.037358 0.216568
vt 0.068633 0.201910
vt 0.037358 0.201910
vt 1.011206 0.456753
vt 1.003888 0.025945
vt 1.003888 0.025945
vt 1.010395 0.456708
vn -0.8788 0.4772 0.0000
vn -0.0655 -0.0356 -0.9972
vn 0.0000 -1.0000 0.0000
vn 0.0655 0.0356 0.9972
vn 0.7489 0.6627 -0.0000
vn 0.9493 0.3143 0.0000
vn 0.8788 0.4772 0.0000
vn 0.0000 0.0000 1.0000
vn -0.0000 -0.0000 -1.0000
s off
f 11/1/1 1/2/1 4/3/1 12/4/1
f 12/5/2 4/6/2 8/7/2 10/8/2
f 5/9/3 2/10/3 3/11/3 6/12/3
f 9/13/4 7/14/4 1/15/4 11/16/4
f 8/17/5 4/3/5 1/2/5 7/18/5
f 10/19/6 8/17/6 7/18/6 9/20/6
f 5/9/7 10/19/7 9/20/7 2/10/7
f 2/21/8 9/13/8 11/16/8 3/22/8
f 6/23/9 12/5/9 10/8/9 5/24/9
f 3/11/1 11/1/1 12/4/1 6/12/1
