<?xml version="1.0" encoding="UTF-8" standalone="no"?>
<svg
   inkscape:version="1.3.2 (091e20e, 2023-11-25, custom)"
   id="svg8"
   version="1.1"
   viewBox="0 0 158.74999 95.249995"
   height="360"
   width="600"
   xml:space="preserve"
   sodipodi:docname="controls.svg"
   inkscape:export-filename="..\bin\data\controls.png"
   inkscape:export-xdpi="442.17062"
   inkscape:export-ydpi="442.17062"
   xmlns:inkscape="http://www.inkscape.org/namespaces/inkscape"
   xmlns:sodipodi="http://sodipodi.sourceforge.net/DTD/sodipodi-0.dtd"
   xmlns="http://www.w3.org/2000/svg"
   xmlns:svg="http://www.w3.org/2000/svg"
   xmlns:rdf="http://www.w3.org/1999/02/22-rdf-syntax-ns#"
   xmlns:cc="http://creativecommons.org/ns#"
   xmlns:dc="http://purl.org/dc/elements/1.1/"><defs
     id="defs2" /><sodipodi:namedview
     showgrid="true"
     inkscape:document-rotation="0"
     inkscape:current-layer="layer1"
     inkscape:document-units="px"
     inkscape:cy="166.47625"
     inkscape:cx="240.82043"
     inkscape:zoom="1.0962525"
     inkscape:pageshadow="2"
     inkscape:pageopacity="0"
     borderopacity="1.0"
     bordercolor="#666666"
     pagecolor="#818181"
     id="base"
     inkscape:pagecheckerboard="0"
     width="64mm"
     units="px"
     objecttolerance="1"
     guidetolerance="1"
     gridtolerance="1"
     inkscape:showpageshadow="2"
     inkscape:deskcolor="#818181"
     inkscape:window-width="1920"
     inkscape:window-height="1147"
     inkscape:window-x="-8"
     inkscape:window-y="-8"
     inkscape:window-maximized="1"><inkscape:grid
       type="xygrid"
       id="grid822"
       spacingx="16.933332"
       spacingy="16.933332"
       originx="0"
       originy="0"
       units="px"
       visible="true" /></sodipodi:namedview><metadata
     id="metadata5"><rdf:RDF><cc:Work
         rdf:about=""><dc:format>image/svg+xml</dc:format><dc:type
           rdf:resource="http://purl.org/dc/dcmitype/StillImage" /></cc:Work></rdf:RDF></metadata><g
     id="layer1"
     inkscape:groupmode="layer"
     inkscape:label="Layer 1"><ellipse
       style="fill:#000000;fill-opacity:1;stroke:none;stroke-width:3.96875;stroke-linecap:round;stroke-dasharray:none;stroke-opacity:1;paint-order:stroke fill markers"
       id="path1205"
       cx="65.484367"
       cy="33.45089"
       rx="7.2760415"
       ry="5.9531245" /><rect
       style="fill:#000000;stroke-width:5.29167;stroke-miterlimit:12;stroke-dasharray:5.29167, 5.29167;paint-order:markers fill stroke"
       id="rect1"
       width="15.497024"
       height="13.418155"
       x="86.367554"
       y="17.008926"
       rx="67.73333"
       ry="13.418155" /><ellipse
       style="fill:#000000;fill-opacity:1;stroke:none;stroke-width:3.96875;stroke-linecap:round;stroke-dasharray:none;stroke-opacity:1;paint-order:stroke fill markers"
       id="path1207"
       cx="84.997391"
       cy="42.569565"
       rx="6.0003719"
       ry="6.3783479" /><ellipse
       style="fill:#000000;fill-opacity:1;stroke:none;stroke-width:4.90104;stroke-linecap:round;stroke-dasharray:none;stroke-opacity:1;paint-order:stroke fill markers"
       id="path1209"
       cx="95.108253"
       cy="32.694939"
       rx="8.6462049"
       ry="8.0319939" /><path
       style="fill:#ffffff;stroke-width:0.0584752"
       d="M 54.481262,59.464245 C 53.52897,59.269027 52.623646,58.529213 52.163467,57.570173 51.433142,56.048135 51.05908,52.560559 51.137589,48.00535 c 0.03645,-2.115106 0.06778,-2.542196 0.308775,-4.210229 0.457054,-3.163418 1.559619,-8.165657 2.390876,-10.847187 1.186852,-3.82864 2.795572,-7.041886 4.190542,-8.370182 0.7998,-0.761568 2.44598,-1.644019 4.19154,-2.24692 0.81826,-0.282618 1.50267,-0.374321 2.39044,-0.320293 1.50959,0.09187 2.5386,0.449863 4.46112,1.55203 1.05228,0.60327 1.3933,0.770855 2.01435,0.989902 0.68678,0.242235 1.393374,0.396305 2.304464,0.502486 2.29415,0.267365 8.52594,0.265416 10.70664,-0.0033 1.74656,-0.215258 2.56281,-0.50631 4.63362,-1.652224 2.08971,-1.156375 3.33212,-1.499169 4.9006,-1.352128 1.13359,0.106271 2.21309,0.456102 3.68441,1.193994 2.25879,1.132827 2.992974,1.965268 4.536584,5.143743 1.0468,2.15548 1.5836,3.704514 2.39182,6.901957 2.03437,8.048288 2.49667,12.732293 1.83822,18.624415 -0.21371,1.912365 -0.4247,2.854498 -0.82502,3.683952 -0.18802,0.389586 -0.33606,0.592533 -0.68478,0.938748 -0.2447,0.24294 -0.5698,0.513713 -0.72244,0.601711 -0.84103,0.484844 -2.49186,0.525676 -3.868714,0.09568 -0.89339,-0.279004 -2.23503,-0.970608 -3.45556,-1.78131 -1.03534,-0.6877 -1.71674,-1.248654 -3.62547,-2.984654 -1.39307,-1.267009 -2.40453,-2.117837 -2.80924,-2.363118 -1.66904,-1.011543 -4.51121,-1.535755 -9.23669,-1.703625 -5.05838,-0.179698 -9.759134,0.231267 -12.104414,1.058231 -1.32483,0.467143 -1.74876,0.779171 -4.76574,3.507745 -2.0403,1.845256 -3.13612,2.640434 -4.8827,3.543114 -0.93254,0.481963 -1.81205,0.805322 -2.53172,0.930824 -0.52461,0.09149 -1.69629,0.105838 -2.08784,0.02559 z M 72.591206,46.427669 c 0.30149,-0.144713 0.35283,-0.372629 0.3849,-1.708705 l 0.0292,-1.21622 h 1.1631 c 1.39548,0 1.52593,-0.03343 1.62937,-0.41757 0.04,-0.148581 0.0593,-0.539175 0.0473,-0.957296 -0.0221,-0.770772 -0.0936,-0.975569 -0.378,-1.083711 -0.0808,-0.03072 -0.66961,-0.05587 -1.30843,-0.05587 h -1.16149 l -0.031,-0.306996 c -0.017,-0.168847 -0.0457,-0.714861 -0.0635,-1.213365 -0.0382,-1.065596 -0.0632,-1.209943 -0.22506,-1.29654 -0.18886,-0.101075 -1.873544,-0.07069 -2.082894,0.03756 -0.25739,0.133104 -0.29577,0.343123 -0.29577,1.618555 v 1.160782 l -1.12565,3.54e-4 c -1.75156,5.26e-4 -1.76936,0.01255 -1.76802,1.195842 0.001,0.973142 0.0435,1.187514 0.2508,1.267285 0.0867,0.03337 0.71684,0.07566 1.40027,0.09397 l 1.2426,0.0333 0.001,1.08751 c 7.5e-4,0.598131 0.0252,1.19016 0.0543,1.315621 0.0646,0.278454 0.2173,0.440106 0.47814,0.506138 0.29061,0.07357 1.570894,0.02943 1.758504,-0.06063 z m 13.14701,-0.795566 c 0.94993,-0.27921 1.78107,-0.973887 2.20493,-1.84292 0.27714,-0.56821 0.36649,-0.942928 0.36528,-1.53192 -0.002,-1.026567 -0.49965,-2.092115 -1.24119,-2.658157 -0.71489,-0.545703 -1.49859,-0.83287 -2.27295,-0.83287 -0.56057,0 -0.942,0.09182 -1.51388,0.364404 -1.26712,0.603974 -2.06982,1.966529 -1.96987,3.343773 0.0895,1.23379 0.83833,2.36116 1.92439,2.89734 0.26622,0.131432 0.65508,0.277413 0.86414,0.324402 0.45167,0.101528 1.17151,0.0734 1.63915,-0.06405 z m 9.54719,-6.127272 c 0.41191,-0.182168 0.95689,-0.710186 1.14081,-1.105308 0.53645,-1.152474 0.0828,-2.487635 -1.03191,-3.036742 -0.24032,-0.118386 -0.35927,-0.134306 -1.00358,-0.134306 -0.6443,0 -0.76325,0.01592 -1.00357,0.134306 -0.89266,0.439742 -1.37804,1.406703 -1.21938,2.429238 0.0781,0.503246 0.23684,0.790109 0.6574,1.187863 0.74434,0.703963 1.62874,0.892672 2.46023,0.524949 z m 3.69717,-4.076923 c 1.172614,-0.216769 1.971094,-1.251899 1.881324,-2.438899 -0.0424,-0.560797 -0.24837,-0.986703 -0.69249,-1.43205 -0.449794,-0.451037 -0.757564,-0.583665 -1.424264,-0.613761 -0.4329,-0.01954 -0.58444,-0.0018 -0.85405,0.09978 -0.47054,0.177338 -0.83585,0.438037 -1.08012,0.770797 -0.33703,0.459133 -0.45569,0.822072 -0.45703,1.397947 -0.001,0.436345 0.0213,0.545747 0.18132,0.887635 0.10037,0.214472 0.29334,0.510215 0.42883,0.657208 0.29193,0.3167 0.85704,0.611497 1.2942,0.675132 0.17128,0.02493 0.32633,0.04862 0.34454,0.05263 0.0182,0.004 0.1882,-0.02137 0.37774,-0.05641 z m -8.09191,-0.111025 c 0.9047,-0.283016 1.5119,-1.136162 1.5119,-2.124292 0,-0.5307 -0.10526,-0.894852 -0.37691,-1.303995 -0.2697,-0.406189 -0.66319,-0.693224 -1.1631,-0.848413 -1.10059,-0.341669 -2.23871,0.143404 -2.74382,1.16944 -0.17799,0.36155 -0.18941,0.422474 -0.18739,1.000222 0.002,0.499272 0.0255,0.66675 0.12636,0.888633 0.23011,0.506519 0.87981,1.093366 1.38579,1.251732 0.36854,0.115349 1.01985,0.10035 1.44717,-0.03333 z M 64.261482,34.99434 c 0.90695,-0.213839 1.88693,-0.974643 2.28131,-1.771096 0.56129,-1.133527 0.46179,-2.614682 -0.24189,-3.600805 -0.50115,-0.702297 -1.20853,-1.210043 -1.96697,-1.411871 -0.41317,-0.109947 -1.3293,-0.10939 -1.79789,0.0011 -1.19857,0.282595 -2.1868,1.264566 -2.50814,2.492242 -0.15346,0.58632 -0.12741,1.378439 0.0642,1.951654 0.38026,1.137631 1.32267,2.043133 2.42953,2.334401 0.42079,0.110728 1.27963,0.11289 1.73985,0.0044 z m 31.099974,-4.03178 c 1.18782,-0.58705 1.62311,-1.92754 1.00345,-3.09015 -0.23358,-0.43823 -0.71044,-0.87313 -1.1411,-1.040695 -0.25334,-0.09857 -0.46555,-0.131966 -0.86231,-0.135697 -0.4599,-0.0043 -0.57054,0.0157 -0.87714,0.158752 -0.87814,0.409728 -1.42399,1.327078 -1.36121,2.287622 0.0493,0.75347 0.52457,1.467499 1.20714,1.813386 0.42366,0.21468 0.67606,0.266196 1.17325,0.239455 0.35129,-0.01889 0.51545,-0.06341 0.85792,-0.232673 z"
       id="path244" /><rect
       style="fill:#000000;stroke-width:5.29167;stroke-miterlimit:12;stroke-dasharray:5.29167, 5.29167;paint-order:markers fill stroke"
       id="rect11"
       width="15.497024"
       height="13.418155"
       x="55.675911"
       y="17.008928"
       rx="67.73333"
       ry="13.418155" /><path
       style="color:#000000;fill:#000000;-inkscape-stroke:none;paint-order:stroke fill markers"
       d="m 64.729448,20.029111 c -1.08539,-0.06605 -2.142408,0.07494 -3.158203,0.425781 -1.946439,0.672283 -3.681934,1.514176 -4.91211,2.685547 -2.000618,1.904996 -3.472762,5.2076 -4.716797,9.220703 -0.890973,2.874168 -1.979681,7.832978 -2.458984,11.150391 -0.244369,1.691386 -0.29337,2.328895 -0.330078,4.458984 -0.08068,4.681239 0.09323,8.109268 1.220703,10.458984 0.466328,0.971855 1.235863,1.678328 2.123047,2.22461 v 0.429687 l 1.585937,0.324219 c 1.199889,0.245914 1.843519,0.157699 2.826172,-0.01367 1.018407,-0.177598 2.040492,-0.573647 3.103516,-1.123047 1.868094,-0.965482 3.21062,-1.941867 5.302734,-3.833984 1.502105,-1.358512 2.347904,-2.098665 2.861328,-2.476563 0.513425,-0.377897 0.638082,-0.423244 1.232422,-0.632812 1.755474,-0.618994 6.467491,-1.119651 11.375001,-0.945313 4.60721,0.163669 7.20237,0.764517 8.27734,1.416016 -0.0815,-0.0494 1.13741,0.891923 2.50391,2.134765 1.92522,1.751001 2.74597,2.429072 3.86133,3.169922 1.34553,0.893734 2.71841,1.632839 3.96289,2.021485 1.841794,0.575199 3.678504,0.75239 5.451174,-0.269532 0.62236,-0.358795 0.78376,-0.569442 1.12891,-0.912109 0.4246,-0.421553 0.82623,-0.970532 1.07421,-1.484375 0.53736,-1.113381 0.78804,-2.342034 1.00977,-4.326172 0.68273,-6.109355 0.17497,-11.175651 -1.88672,-19.332031 -0.82206,-3.252204 -1.4377,-5.031465 -2.53125,-7.283203 -1.59214,-3.278416 -2.97866,-4.820563 -5.431644,-6.050781 -1.59433,-0.799587 -2.96871,-1.261414 -4.38867,-1.394532 -1.95079,-0.182881 -3.81099,0.354533 -6.04688,1.591797 -2.00206,1.107875 -2.30853,1.220093 -3.91406,1.417969 -1.72641,0.212737 -8.35174,0.22136 -10.23437,0.002 -0.80904,-0.09429 -1.34195,-0.214331 -1.875003,-0.402344 -0.536534,-0.189237 -0.658141,-0.249714 -1.6875,-0.839843 -2.026725,-1.161907 -3.561123,-1.704965 -5.328125,-1.8125 z m -0.240235,3.96289 c 1.252176,0.0762 1.775439,0.250545 3.59375,1.292969 1.075199,0.616409 1.636232,0.889816 2.341797,1.138672 0.840509,0.296457 1.721236,0.483488 2.734376,0.601562 2.70566,0.315323 8.54471,0.32079 11.17969,-0.0039 1.88759,-0.232639 3.21201,-0.700815 5.35156,-1.884766 1.94353,-1.075482 2.56969,-1.224481 3.75586,-1.113281 0.84722,0.07943 1.63021,0.315992 2.97851,0.992188 2.0646,1.035433 2.14751,1.157801 3.642584,4.236328 0.0443,0.09125 0.0573,0.200491 0.0996,0.289062 -0.480664,-0.20389 -0.892474,-0.560324 -1.330084,-0.580078 -0.096,-0.0043 -0.20348,0.03969 -0.31054,0.04297 0.0236,-0.70607 -0.0635,-1.414066 -0.41016,-2.064453 -0.50455,-0.946619 -1.12122,-1.548233 -2.17187,-1.957031 -0.46117,-0.179433 -1.06301,-0.264816 -1.56446,-0.269532 -0.5204,-0.0049 -1.32623,0.153322 -1.73437,0.34375 -1.53216,0.714886 -2.43188,2.2647 -2.43555,3.941407 -1.59665,-4.01e-4 -3.14288,0.856705 -3.87109,2.335937 -0.20215,0.410626 -0.39469,1.278429 -0.39258,1.882813 v 0.002 c 0.002,0.55976 0.0962,1.242546 0.30469,1.701172 0.57315,1.261638 1.2221,1.893074 2.59961,2.324218 0.56758,0.177647 1.02042,0.224385 1.46093,0.197266 -10e-4,0.225692 -0.14053,0.428283 -0.10547,0.654297 0.12307,0.792977 0.67036,1.772419 1.25586,2.326172 1.18583,1.121503 3.08979,1.578244 4.62696,0.898437 1.11699,-0.493991 1.60534,-0.942407 2.13672,-2.083984 0.26425,-0.567709 0.36711,-1.167936 0.37109,-1.767578 0.0624,4.26e-4 0.10186,-2.17e-4 0.13281,-0.002 0.0656,-0.0037 0.10058,-0.0082 0.13281,-0.01172 0.0645,-0.0071 0.1102,-0.01403 0.16016,-0.02148 0.0999,-0.01492 0.20544,-0.03345 0.32031,-0.05469 1.227374,-0.226891 2.207224,-1.015884 2.828134,-2.033203 0.0495,0.191255 0.0963,0.221503 0.14844,0.427735 2.00704,7.940179 2.42518,12.243091 1.79101,17.917968 -0.20569,1.840588 -0.37734,2.495492 -0.64062,3.041016 -0.12806,0.265328 -0.024,0.123655 -0.29688,0.394531 -0.14425,0.143214 -0.63153,0.471863 -0.31445,0.289063 0.0906,-0.05223 -1.37521,0.206667 -2.28711,-0.07813 -0.54231,-0.169359 -1.851754,-0.813347 -2.947274,-1.541015 -0.95532,-0.634549 -1.49644,-1.077833 -3.38867,-2.798828 -1.41964,-1.291173 -2.22626,-2.051839 -3.11719,-2.591797 -2.2631,-1.371586 -5.34962,-1.818163 -10.19336,-1.990235 -5.20924,-0.185057 -9.900852,0.134991 -12.835933,1.169922 -0.730489,0.257576 -1.47968,0.602643 -2.263672,1.179688 -0.783992,0.577044 -1.657002,1.358456 -3.171875,2.728515 -1.988481,1.798392 -2.837828,2.412078 -4.462891,3.251953 -0.802054,0.414524 -1.541959,0.664876 -1.96289,0.738282 -0.06618,0.01154 -1.729977,-0.04614 -1.339844,0.03711 l -0.0078,-0.002 c -0.22847,-0.04684 -0.734505,-0.405893 -0.927734,-0.808594 -0.333175,-0.694356 -0.906415,-4.242705 -0.830078,-8.671875 0.03619,-2.100118 0.05144,-2.316261 0.289062,-3.960937 0.434804,-3.009418 1.550727,-8.054083 2.322266,-10.542969 1.129668,-3.64417 2.872791,-6.767939 3.662109,-7.519531 0.369423,-0.351764 1.927979,-1.275076 3.472657,-1.808594 0.620722,-0.214391 0.930945,-0.256845 1.621093,-0.214844 z m -2.408203,2.289063 c -1.960804,0.462312 -3.464593,1.978873 -3.972656,3.919922 -0.278241,1.063065 -0.247165,2.04074 0.101563,3.083984 0.592396,1.772284 1.98902,3.146698 3.80664,3.625 1.057264,0.278213 1.698596,0.251967 2.701172,0.01563 l 1.527344,-0.359381 v -0.347656 c 0.852334,-0.498091 1.594528,-1.142553 2.076172,-2.115235 0.907711,-1.833126 0.793727,-3.953924 -0.404297,-5.632812 -0.751316,-1.052872 -1.810884,-1.842069 -3.072266,-2.177734 -1.11922,-0.297831 -1.734219,-0.254456 -2.763672,-0.01172 z m 32.242186,2.371094 c 0.20506,-0.09567 -0.37987,0.02361 0.0195,0.02734 0.29208,0.0027 0.1166,-0.01575 0.16211,0.002 -0.18933,-0.07367 0.14677,0.19516 0.10938,0.125 0.14044,0.263491 0.15196,0.236209 -0.13281,0.376953 -0.24057,0.118898 0.13347,0.01956 -0.084,0.03125 -0.32475,0.01747 0.0845,0.0996 -0.16992,-0.0293 -0.0316,-0.01604 -0.12462,-0.166032 -0.125,-0.171875 -0.009,-0.13151 0.0855,-0.298243 0.2207,-0.361329 z M 63.823198,30.12872 c 0.255497,0.06799 0.612298,0.294764 0.863281,0.646484 0.209335,0.293358 0.292993,1.134434 0.07813,1.56836 -0.0373,0.07532 -0.764517,0.672899 -0.958984,0.71875 0.08214,-0.01936 -0.994982,-0.04894 -0.779297,0.0078 -0.396098,-0.104233 -0.884612,-0.539994 -1.052735,-1.042969 -0.03449,-0.103186 -0.05407,-0.710741 -0.02539,-0.820312 0.134616,-0.514302 0.606636,-0.961577 1.042969,-1.064453 -0.09227,0.02176 1.124912,0.06426 0.832031,-0.01367 z m 34.769528,2.771484 c 0.11137,-0.04196 -0.29356,0.0092 0.0645,0.02539 0.43181,0.01949 -0.15817,-0.235076 0.10937,0.0332 0.21405,0.214641 0.10747,0.02532 0.11914,0.179688 0.0165,0.218164 -0.0431,0.29712 -0.26367,0.33789 -0.004,7.31e-4 -0.006,0.0012 -0.01,0.002 -0.0235,-0.0035 -0.0419,-0.0062 -0.0664,-0.0098 0.1861,0.02709 -0.2782,-0.227078 -0.1211,-0.05664 0.12712,0.137904 -0.1065,-0.189902 -0.0898,-0.154297 -0.12113,-0.258791 0.005,0.32696 0.006,-0.04102 7.1e-4,-0.305228 -0.10105,0.0076 0.0723,-0.228516 -0.0216,0.02948 -0.007,-0.01736 0.17968,-0.08789 z m -8.31836,0.03516 c 0.11983,0.0372 0.0817,0.02668 0.0977,0.05078 0.10219,0.153914 0.0469,-0.06128 0.0469,0.207031 0,0.175206 -0.0594,0.211179 -0.1211,0.230469 0.0807,-0.02524 -0.576,-0.06517 -0.26172,0.0332 0.36555,0.114412 -0.28481,-0.428289 -0.17187,-0.179688 0.007,0.0146 0.0509,0.329668 0.0508,-0.07422 v -0.002 c -0.007,-0.500898 -0.16694,0.192122 -0.0156,-0.115235 0.0929,-0.188664 0.15226,-0.219541 0.375,-0.15039 z m 4.09375,0.191406 c 0.009,1.53e-4 0.0184,0.0058 0.0273,0.0059 -3.6e-4,0.01431 -0.0135,0.02876 -0.0137,0.04297 -8e-5,-0.0161 -0.0134,-0.03261 -0.0137,-0.04883 z m 0.008,0.101562 c 2e-5,0.0046 0.004,0.01093 0.004,0.01563 -0.004,-1e-6 -0.006,3e-6 -0.01,0 7e-5,-0.0058 0.006,-0.0099 0.006,-0.01563 z M 71.608534,36.12677 c -0.272141,0.0049 -0.540075,0.01681 -0.796875,0.03906 -0.1284,0.01113 -0.252188,0.02464 -0.398437,0.04883 -0.146249,0.02419 -0.238855,-0.02178 -0.730469,0.232422 -0.235603,0.121837 -0.627772,0.39956 -0.882813,0.773438 -0.25504,0.373878 -0.352128,0.736922 -0.402343,1.011719 -0.04597,0.25158 -0.0274,0.50544 -0.03711,0.730468 -0.510593,-0.03523 -1.032909,-0.0087 -1.839844,0.53711 -0.610169,0.412697 -0.963401,1.211371 -1.041015,1.662109 -0.07761,0.450738 -0.05894,0.72459 -0.05859,1.025391 5.3e-4,0.515308 -0.01465,0.843426 0.08594,1.351562 0.05029,0.25407 0.139767,0.594805 0.40625,0.96875 0.266166,0.373503 0.720678,0.677814 1.029296,0.796875 0.642575,0.247321 0.531413,0.132647 0.658204,0.146485 0.12679,0.01384 0.253705,0.02349 0.398437,0.0332 0.09123,0.0061 0.214828,0.0083 0.316406,0.01367 v -0.828125 c 3.71e-4,0.295393 0.0062,0.576083 0.01563,0.830078 0.216653,0.01123 0.426752,0.02273 0.671875,0.0293 l -0.671875,-0.01758 c 8.28e-4,0.02203 0.0011,0.05079 0.002,0.07227 0.01121,0.271563 -0.05425,0.234844 0.08789,0.847656 0.181968,0.784361 1.094681,1.770569 1.923828,1.980469 0.454457,0.115049 0.579743,0.08727 0.800781,0.09375 0.221039,0.0065 0.447579,0.0039 0.673829,-0.0039 0.226257,-0.0078 0.446707,-0.02043 0.664067,-0.04297 0.0443,-0.0046 0.16478,-0.05306 0.19726,-0.04883 l 0.4043,-0.01758 0.36524,-0.175781 c 0.47751,-0.229204 1.23973,-1.176612 1.37109,-1.759766 0.0753,-0.334402 0.0657,-0.661044 0.0801,-0.96875 h -0.73242 c 0.29338,0 0.51177,-0.05102 0.73632,-0.05273 0.009,-0.214453 0.0481,-0.394877 0.0547,-0.667969 l -0.0156,0.666015 c 0.30834,-0.0041 0.61372,0.03073 1.01562,-0.07227 0.35437,-0.09081 0.89095,-0.343553 1.24805,-0.763672 0.3571,-0.420119 0.45465,-0.80592 0.50586,-0.996094 0.22528,-0.836829 0.13,-1.016716 0.11523,-1.53125 -0.0127,-0.441636 0.004,-0.79919 -0.20117,-1.386719 -0.20496,-0.587528 -0.97554,-1.311799 -1.45508,-1.49414 -0.68446,-0.26023 -0.55726,-0.13368 -0.68164,-0.144531 -0.12438,-0.01085 -0.24722,-0.01756 -0.38476,-0.02344 -0.072,-0.0031 -0.16944,-0.0016 -0.24805,-0.0039 -0.0111,-0.305859 -0.0129,-0.59569 -0.0664,-0.904297 -0.038,-0.218952 -0.0982,-0.51483 -0.32031,-0.880859 -0.22209,-0.36603 -0.6335,-0.690748 -0.85742,-0.810547 -0.58291,-0.311963 -0.65826,-0.227945 -0.8086,-0.248047 -0.15033,-0.0201 -0.27406,-0.02855 -0.40234,-0.03516 -0.25656,-0.01322 -0.52278,-0.01663 -0.794925,-0.01172 z m 13.185552,0.654297 c -0.77726,0 -1.64219,0.213025 -2.36719,0.558593 -2.01969,0.962686 -3.25801,3.042834 -3.09571,5.279297 0.14098,1.943416 1.27395,3.666576 3.0254,4.53125 0.43101,0.21279 0.7533,0.358055 1.30664,0.482422 0.96833,0.217665 1.70881,0.174501 2.63476,-0.09766 1.50385,-0.44202 2.74043,-1.461816 3.42969,-2.875 0.35416,-0.726123 0.56608,-1.614846 0.56445,-2.40625 -0.003,-1.665199 -0.66558,-3.197415 -2.02148,-4.232422 -1.00399,-0.766383 -2.21161,-1.240234 -3.47656,-1.240234 z m 9.59765,0.43164 c 0.11372,0 0.078,1.04e-4 0.14453,0.002 0.10255,0.07618 0.18151,0.154922 0.0918,0.347656 0.16354,-0.351334 -0.4377,0.256609 -0.14453,0.126954 -0.12581,0.05564 0.008,0.136031 -0.29492,-0.150391 -0.25562,-0.241755 -0.0274,0.162734 -0.0606,-0.05078 -0.0281,-0.181185 0.0375,-0.222181 0.10742,-0.273438 0.0676,-0.002 0.0339,-0.002 0.15625,-0.002 z M 68.315385,39.00372 h 0.04297 c -0.0095,0.255022 -0.04297,0.48453 -0.04297,0.824219 z m 5.843751,0 h 0.63281 l 0.002,0.01172 c -0.20507,-0.0055 -0.40332,-0.01172 -0.63481,-0.01172 z m 10.63477,1.746094 c 0.28376,0 0.64256,0.100759 1.06835,0.425781 0.12718,0.09708 0.46019,0.698003 0.46094,1.085938 8e-4,0.386578 0.0361,0.247908 -0.16406,0.658203 -0.15846,0.324878 -0.58446,0.692195 -0.98047,0.808593 -0.009,0.0027 -0.70953,0.01664 -0.64453,0.03125 0.13521,0.03039 -0.3185,-0.117894 -0.41992,-0.167968 -0.42068,-0.207685 -0.7862,-0.737557 -0.82422,-1.261719 -0.0376,-0.51802 0.3292,-1.162942 0.84375,-1.408203 0.41876,-0.199599 0.31628,-0.171875 0.66016,-0.171875 z"
       id="path1149" /><path
       style="color:#000000;fill:#ffffff;stroke-width:3.96875;-inkscape-stroke:none;paint-order:stroke fill markers"
       d="M 54.481262,59.464245 C 53.52897,59.269027 52.623646,58.529213 52.163467,57.570173 51.433142,56.048135 51.05908,52.560559 51.137589,48.00535 c 0.03645,-2.115106 0.06778,-2.542196 0.308775,-4.210229 0.457054,-3.163418 1.559619,-8.165657 2.390876,-10.847187 1.186852,-3.82864 2.795572,-7.041886 4.190542,-8.370182 0.7998,-0.761568 2.44598,-1.644019 4.19154,-2.24692 0.81826,-0.282618 1.50267,-0.374321 2.39044,-0.320293 1.50959,0.09187 2.5386,0.449863 4.46112,1.55203 1.05228,0.60327 1.3933,0.770855 2.01435,0.989902 0.68678,0.242235 1.393374,0.396305 2.304464,0.502486 2.29415,0.267365 8.52594,0.265416 10.70664,-0.0033 1.74656,-0.215258 2.56281,-0.50631 4.63362,-1.652224 2.08971,-1.156375 3.33212,-1.499169 4.9006,-1.352128 1.13359,0.106271 2.21309,0.456102 3.68441,1.193994 2.25879,1.132827 2.992974,1.965268 4.536584,5.143743 1.0468,2.15548 1.5836,3.704514 2.39182,6.901957 2.03437,8.048288 2.49667,12.732293 1.83822,18.624415 -0.21371,1.912365 -0.4247,2.854498 -0.82502,3.683952 -0.18802,0.389586 -0.33606,0.592533 -0.68478,0.938748 -0.2447,0.24294 -0.5698,0.513713 -0.72244,0.601711 -0.84103,0.484844 -2.49186,0.525676 -3.868714,0.09568 -0.89339,-0.279004 -2.23503,-0.970608 -3.45556,-1.78131 -1.03534,-0.6877 -1.71674,-1.248654 -3.62547,-2.984654 -1.39307,-1.267009 -2.40453,-2.117837 -2.80924,-2.363118 -1.66904,-1.011543 -4.51121,-1.535755 -9.23669,-1.703625 -5.05838,-0.179698 -9.759134,0.231267 -12.104414,1.058231 -1.32483,0.467143 -1.74876,0.779171 -4.76574,3.507745 -2.0403,1.845256 -3.13612,2.640434 -4.8827,3.543114 -0.93254,0.481963 -1.81205,0.805322 -2.53172,0.930824 -0.52461,0.09149 -1.69629,0.105838 -2.08784,0.02559 z M 72.591206,46.427669 c 0.30149,-0.144713 0.35283,-0.372629 0.3849,-1.708705 l 0.0292,-1.21622 h 1.1631 c 1.39548,0 1.52593,-0.03343 1.62937,-0.41757 0.04,-0.148581 0.0593,-0.539175 0.0473,-0.957296 -0.0221,-0.770772 -0.0936,-0.975569 -0.378,-1.083711 -0.0808,-0.03072 -0.66961,-0.05587 -1.30843,-0.05587 h -1.16149 l -0.031,-0.306996 c -0.017,-0.168847 -0.0457,-0.714861 -0.0635,-1.213365 -0.0382,-1.065596 -0.0632,-1.209943 -0.22506,-1.29654 -0.18886,-0.101075 -1.873544,-0.07069 -2.082894,0.03756 -0.25739,0.133104 -0.29577,0.343123 -0.29577,1.618555 v 1.160782 l -1.12565,3.54e-4 c -1.75156,5.26e-4 -1.76936,0.01255 -1.76802,1.195842 0.001,0.973142 0.0435,1.187514 0.2508,1.267285 0.0867,0.03337 0.71684,0.07566 1.40027,0.09397 l 1.2426,0.0333 0.001,1.08751 c 7.5e-4,0.598131 0.0252,1.19016 0.0543,1.315621 0.0646,0.278454 0.2173,0.440106 0.47814,0.506138 0.29061,0.07357 1.570894,0.02943 1.758504,-0.06063 z m 13.14701,-0.795566 c 0.94993,-0.27921 1.78107,-0.973887 2.20493,-1.84292 0.27714,-0.56821 0.36649,-0.942928 0.36528,-1.53192 -0.002,-1.026567 -0.49965,-2.092115 -1.24119,-2.658157 -0.71489,-0.545703 -1.49859,-0.83287 -2.27295,-0.83287 -0.56057,0 -0.942,0.09182 -1.51388,0.364404 -1.26712,0.603974 -2.06982,1.966529 -1.96987,3.343773 0.0895,1.23379 0.83833,2.36116 1.92439,2.89734 0.26622,0.131432 0.65508,0.277413 0.86414,0.324402 0.45167,0.101528 1.17151,0.0734 1.63915,-0.06405 z m 9.54719,-6.127272 c 0.41191,-0.182168 0.95689,-0.710186 1.14081,-1.105308 0.53645,-1.152474 0.0828,-2.487635 -1.03191,-3.036742 -0.24032,-0.118386 -0.35927,-0.134306 -1.00358,-0.134306 -0.6443,0 -0.76325,0.01592 -1.00357,0.134306 -0.89266,0.439742 -1.37804,1.406703 -1.21938,2.429238 0.0781,0.503246 0.23684,0.790109 0.6574,1.187863 0.74434,0.703963 1.62874,0.892672 2.46023,0.524949 z m 3.69717,-4.076923 c 1.172614,-0.216769 1.971094,-1.251899 1.881324,-2.438899 -0.0424,-0.560797 -0.24837,-0.986703 -0.69249,-1.43205 -0.449794,-0.451037 -0.757564,-0.583665 -1.424264,-0.613761 -0.4329,-0.01954 -0.58444,-0.0018 -0.85405,0.09978 -0.47054,0.177338 -0.83585,0.438037 -1.08012,0.770797 -0.33703,0.459133 -0.45569,0.822072 -0.45703,1.397947 -0.001,0.436345 0.0213,0.545747 0.18132,0.887635 0.10037,0.214472 0.29334,0.510215 0.42883,0.657208 0.29193,0.3167 0.85704,0.611497 1.2942,0.675132 0.17128,0.02493 0.32633,0.04862 0.34454,0.05263 0.0182,0.004 0.1882,-0.02137 0.37774,-0.05641 z m -8.09191,-0.111025 c 0.9047,-0.283016 1.5119,-1.136162 1.5119,-2.124292 0,-0.5307 -0.10526,-0.894852 -0.37691,-1.303995 -0.2697,-0.406189 -0.66319,-0.693224 -1.1631,-0.848413 -1.10059,-0.341669 -2.23871,0.143404 -2.74382,1.16944 -0.17799,0.36155 -0.18941,0.422474 -0.18739,1.000222 0.002,0.499272 0.0255,0.66675 0.12636,0.888633 0.23011,0.506519 0.87981,1.093366 1.38579,1.251732 0.36854,0.115349 1.01985,0.10035 1.44717,-0.03333 z M 64.261482,34.99434 c 0.90695,-0.213839 1.88693,-0.974643 2.28131,-1.771096 0.56129,-1.133527 0.46179,-2.614682 -0.24189,-3.600805 -0.50115,-0.702297 -1.20853,-1.210043 -1.96697,-1.411871 -0.41317,-0.109947 -1.3293,-0.10939 -1.79789,0.0011 -1.19857,0.282595 -2.1868,1.264566 -2.50814,2.492242 -0.15346,0.58632 -0.12741,1.378439 0.0642,1.951654 0.38026,1.137631 1.32267,2.043133 2.42953,2.334401 0.42079,0.110728 1.27963,0.11289 1.73985,0.0044 z m 31.099974,-4.03178 c 1.18782,-0.58705 1.62311,-1.92754 1.00345,-3.09015 -0.23358,-0.43823 -0.71044,-0.87313 -1.1411,-1.040695 -0.25334,-0.09857 -0.46555,-0.131966 -0.86231,-0.135697 -0.4599,-0.0043 -0.57054,0.0157 -0.87714,0.158752 -0.87814,0.409728 -1.42399,1.327078 -1.36121,2.287622 0.0493,0.75347 0.52457,1.467499 1.20714,1.813386 0.42366,0.21468 0.67606,0.266196 1.17325,0.239455 0.35129,-0.01889 0.51545,-0.06341 0.85792,-0.232673 z"
       id="path1151" /><path
       style="fill:none;stroke:#ff7f2a;stroke-width:0.668602;stroke-linecap:butt;stroke-linejoin:round;stroke-miterlimit:12;stroke-dasharray:0.668602, 0.668602;stroke-dashoffset:0;stroke-opacity:1;paint-order:markers fill stroke"
       d="m 94.241756,23.489384 c -2.71199,-0.334582 -6.65472,2.322697 -8.19995,0.126748 -0.97915,-1.391462 0.73277,-3.491852 1.95237,-4.689686 2.15006,-2.111689 5.45814,-3.966443 8.46027,-3.422203 4.223804,0.765714 8.920294,7.806886 4.425374,9.759617 -2.095484,0.910337 -4.361724,-1.493639 -6.638064,-1.774476 z"
       id="path36"
       sodipodi:nodetypes="ssssss" /><ellipse
       style="fill:none;fill-opacity:1;stroke:#ff7f2a;stroke-width:0.701709;stroke-linecap:butt;stroke-dasharray:0.701709, 0.701709;stroke-dashoffset:0;stroke-opacity:1;paint-order:stroke fill markers"
       id="path5411"
       cx="63.594574"
       cy="31.743792"
       rx="4.6764164"
       ry="4.7636399" /><circle
       style="fill:none;fill-opacity:1;stroke:#ff7f2a;stroke-width:0.79375;stroke-linecap:butt;stroke-dasharray:0.79375, 0.79375;stroke-dashoffset:0;stroke-opacity:1;paint-order:stroke fill markers"
       id="path5413"
       cx="94.257805"
       cy="37.372391"
       r="3.5435266" /><circle
       style="fill:none;fill-opacity:1;stroke:#ff7f2a;stroke-width:0.79375;stroke-linecap:butt;stroke-dasharray:0.79375, 0.79375;stroke-dashoffset:0;stroke-opacity:1;paint-order:stroke fill markers"
       id="path5415"
       cx="90.006645"
       cy="32.815166"
       r="3.4490325" /><rect
       style="fill:#ff7f2a;stroke-width:6.55349;stroke-linecap:round;paint-order:markers stroke fill"
       id="rect19-3-3"
       width="15.317897"
       height="6.5377083"
       x="80.380302"
       y="47.709251"
       rx="2.1021688" /><text
       xml:space="preserve"
       style="font-style:normal;font-variant:normal;font-weight:bold;font-stretch:normal;font-size:4.72003px;line-height:125%;font-family:Fredoka;-inkscape-font-specification:'Fredoka Bold';text-align:center;letter-spacing:0px;word-spacing:0px;text-anchor:middle;fill:#000000;fill-opacity:1;stroke:none;stroke-width:0.118001px;stroke-linecap:butt;stroke-linejoin:miter;stroke-opacity:1"
       x="88.019669"
       y="52.550606"
       id="text1511-8-0-5-7"><tspan
         sodipodi:role="line"
         id="tspan1509-8-6-0-7"
         style="font-style:normal;font-variant:normal;font-weight:bold;font-stretch:normal;font-family:Fredoka;-inkscape-font-specification:'Fredoka Bold';text-align:center;text-anchor:middle;fill:#000000;fill-opacity:1;stroke:none;stroke-width:0.118001px"
         x="88.019669"
         y="52.550606">JUMP</tspan></text><rect
       style="fill:#ff7f2a;stroke-width:6.55349;stroke-linecap:round;paint-order:markers stroke fill"
       id="rect36"
       width="11.395767"
       height="6.5377083"
       x="105.47928"
       y="20.400797"
       rx="2.1021688" /><rect
       style="fill:#ff7f2a;stroke-width:6.55349;stroke-linecap:round;paint-order:markers stroke fill"
       id="rect19-3-3-5"
       width="15.317897"
       height="6.5377083"
       x="46.53368"
       y="37.895412"
       rx="2.1021688" /><text
       xml:space="preserve"
       style="font-style:normal;font-variant:normal;font-weight:bold;font-stretch:normal;font-size:4.72003px;line-height:125%;font-family:Fredoka;-inkscape-font-specification:'Fredoka Bold';text-align:center;letter-spacing:0px;word-spacing:0px;text-anchor:middle;fill:#000000;fill-opacity:1;stroke:none;stroke-width:0.118001px;stroke-linecap:butt;stroke-linejoin:miter;stroke-opacity:1"
       x="54.173046"
       y="42.736767"
       id="text1511-8-0-5-7-3"><tspan
         sodipodi:role="line"
         id="tspan1509-8-6-0-7-1"
         style="font-style:normal;font-variant:normal;font-weight:bold;font-stretch:normal;font-family:Fredoka;-inkscape-font-specification:'Fredoka Bold';text-align:center;text-anchor:middle;fill:#000000;fill-opacity:1;stroke:none;stroke-width:0.118001px"
         x="54.173046"
         y="42.736767">MOVE</tspan></text><path
       style="fill:#ff7f2a;fill-opacity:1;stroke:none;stroke-width:0.668602;stroke-linecap:round;stroke-linejoin:round;stroke-miterlimit:12;stroke-dasharray:0.668602, 1.3372;stroke-dashoffset:0;stroke-opacity:1;paint-order:markers fill stroke"
       d="M 71.194516,62.41711 83.092778,52.469383 74.315372,63.002271 Z"
       id="path38" /><path
       style="fill:#ff7f2a;fill-opacity:1;stroke:none;stroke-width:0.668602;stroke-linecap:round;stroke-linejoin:round;stroke-miterlimit:12;stroke-dasharray:0.668602, 1.3372;stroke-dashoffset:0;stroke-opacity:1;paint-order:markers fill stroke"
       d="m 88.164168,62.807217 v -9.752673 l 2.925802,9.947727 z"
       id="path39" /><path
       style="fill:#ff7f2a;fill-opacity:1;stroke:none;stroke-width:0.668602;stroke-linecap:round;stroke-linejoin:round;stroke-miterlimit:12;stroke-dasharray:0.668602, 1.3372;stroke-dashoffset:0;stroke-opacity:1;paint-order:markers fill stroke"
       d="M 107.08435,23.60147 89.724596,32.573929 108.83984,25.161898 Z"
       id="path40" /><path
       style="fill:#ff7f2a;fill-opacity:1;stroke:none;stroke-width:0.668602;stroke-linecap:round;stroke-linejoin:round;stroke-miterlimit:12;stroke-dasharray:0.668602, 1.3372;stroke-dashoffset:0;stroke-opacity:1;paint-order:markers fill stroke"
       d="M 106.49919,23.406417 96.16136,20.090508 109.8151,21.845989 Z"
       id="path41" /><path
       style="fill:#ff7f2a;fill-opacity:1;stroke:none;stroke-width:0.668602;stroke-linecap:round;stroke-linejoin:round;stroke-miterlimit:12;stroke-dasharray:0.668602, 1.3372;stroke-dashoffset:0;stroke-opacity:1;paint-order:markers fill stroke"
       d="m 114.49639,36.670052 -3.70602,-12.873529 5.65655,12.093315 z"
       id="path42" /><path
       style="fill:#ff7f2a;fill-opacity:1;stroke:none;stroke-width:0.668602;stroke-linecap:round;stroke-linejoin:round;stroke-miterlimit:12;stroke-dasharray:0.668602, 1.3372;stroke-dashoffset:0;stroke-opacity:1;paint-order:markers fill stroke"
       d="m 122.68863,45.057351 -8.19224,-19.895453 5.65655,20.090507 2.14559,-1.170321"
       id="path43" /><path
       style="fill:#ff7f2a;fill-opacity:1;stroke:none;stroke-width:0.668602;stroke-linecap:round;stroke-linejoin:round;stroke-miterlimit:12;stroke-dasharray:0.668602, 1.3372;stroke-dashoffset:0;stroke-opacity:1;paint-order:markers fill stroke"
       d="m 86.213633,48.37326 7.412032,-10.337833 -5.266443,10.14278 z"
       id="path44" /><path
       style="fill:#ff7f2a;fill-opacity:1;stroke:none;stroke-width:0.668602;stroke-linecap:round;stroke-linejoin:round;stroke-miterlimit:12;stroke-dasharray:0.668602, 1.3372;stroke-dashoffset:0;stroke-opacity:1;paint-order:markers fill stroke"
       d="M 38.035427,31.793715 52.469383,38.81564 38.620587,34.719518 Z"
       id="path45" /><path
       style="fill:#ff7f2a;fill-opacity:1;stroke:none;stroke-width:0.668602;stroke-linecap:round;stroke-linejoin:round;stroke-miterlimit:12;stroke-dasharray:0.668602, 1.3372;stroke-dashoffset:0;stroke-opacity:1;paint-order:markers fill stroke"
       d="M 38.035427,52.469383 49.348528,42.71671 37.840373,55.395185 Z"
       id="path46" /><path
       style="fill:#ff7f2a;fill-opacity:1;stroke:none;stroke-width:0.668602;stroke-linecap:round;stroke-linejoin:round;stroke-miterlimit:12;stroke-dasharray:0.668602, 1.3372;stroke-dashoffset:0;stroke-opacity:1;paint-order:markers fill stroke"
       d="m 54.810025,39.400801 7.412032,-7.607086 -5.656551,7.802139 z"
       id="path47" /><text
       xml:space="preserve"
       style="font-style:normal;font-variant:normal;font-weight:bold;font-stretch:normal;font-size:4.72003px;line-height:125%;font-family:Fredoka;-inkscape-font-specification:'Fredoka Bold';text-align:center;letter-spacing:0px;word-spacing:0px;text-anchor:middle;fill:#000000;fill-opacity:1;stroke:none;stroke-width:0.118001px;stroke-linecap:butt;stroke-linejoin:miter;stroke-opacity:1"
       x="111.39841"
       y="25.242151"
       id="text36"><tspan
         sodipodi:role="line"
         id="tspan36"
         style="font-style:normal;font-variant:normal;font-weight:bold;font-stretch:normal;font-family:Fredoka;-inkscape-font-specification:'Fredoka Bold';text-align:center;text-anchor:middle;fill:#000000;fill-opacity:1;stroke:none;stroke-width:0.118001px"
         x="111.39841"
         y="25.242151">RUN</tspan></text><rect
       style="fill:#000000;stroke-width:6.18627;stroke-linecap:round;paint-order:markers stroke fill"
       id="rect32"
       width="15.946665"
       height="7.8183432"
       x="113.14357"
       y="35.222267"
       rx="1.984375" /><rect
       style="fill:#ffffff;stroke-width:4.91512;stroke-linecap:round;paint-order:markers stroke fill"
       id="rect33"
       width="13.792269"
       height="4.9032812"
       x="114.17118"
       y="36.177322"
       rx="1.5766265" /><text
       xml:space="preserve"
       style="font-style:normal;font-variant:normal;font-weight:bold;font-stretch:normal;font-size:3.54002px;line-height:125%;font-family:Fredoka;-inkscape-font-specification:'Fredoka Bold';text-align:center;letter-spacing:0px;word-spacing:0px;text-anchor:middle;fill:#000000;fill-opacity:1;stroke:none;stroke-width:0.0885007px;stroke-linecap:butt;stroke-linejoin:miter;stroke-opacity:1"
       x="121.09134"
       y="39.808338"
       id="text33"><tspan
         sodipodi:role="line"
         id="tspan33"
         style="font-style:normal;font-variant:normal;font-weight:bold;font-stretch:normal;font-family:Fredoka;-inkscape-font-specification:'Fredoka Bold';text-align:center;text-anchor:middle;fill:#000000;fill-opacity:1;stroke:none;stroke-width:0.0885007px"
         x="121.09134"
         y="39.808338">SHIFT</tspan></text><rect
       style="fill:#000000;stroke-width:6.18627;stroke-linecap:round;paint-order:markers stroke fill"
       id="rect34"
       width="13.564313"
       height="7.8183432"
       x="120.12949"
       y="44.224854"
       rx="1.984375" /><rect
       style="fill:#ffffff;stroke-width:4.91512;stroke-linecap:round;paint-order:markers stroke fill"
       id="rect35"
       width="11.609069"
       height="4.9032812"
       x="121.15712"
       y="45.179909"
       rx="1.5766265" /><text
       xml:space="preserve"
       style="font-style:normal;font-variant:normal;font-weight:bold;font-stretch:normal;font-size:3.54002px;line-height:125%;font-family:Fredoka;-inkscape-font-specification:'Fredoka Bold';text-align:center;letter-spacing:0px;word-spacing:0px;text-anchor:middle;fill:#000000;fill-opacity:1;stroke:none;stroke-width:0.0885007px;stroke-linecap:butt;stroke-linejoin:miter;stroke-opacity:1"
       x="126.95545"
       y="48.796604"
       id="text35"><tspan
         sodipodi:role="line"
         id="tspan35"
         style="font-style:normal;font-variant:normal;font-weight:bold;font-stretch:normal;font-family:Fredoka;-inkscape-font-specification:'Fredoka Bold';text-align:center;text-anchor:middle;fill:#000000;fill-opacity:1;stroke:none;stroke-width:0.0885007px"
         x="126.95545"
         y="48.796604">CTRL</tspan></text><rect
       style="fill:#000000;stroke-width:6.18627;stroke-linecap:round;paint-order:markers stroke fill"
       id="rect18-3"
       width="15.946666"
       height="7.8183432"
       x="65.50032"
       y="62.54945"
       rx="1.984375" /><rect
       style="fill:#ffffff;stroke-width:4.91512;stroke-linecap:round;paint-order:markers stroke fill"
       id="rect19-3"
       width="13.79227"
       height="4.9032812"
       x="66.527946"
       y="63.504505"
       rx="1.5766267" /><text
       xml:space="preserve"
       style="font-style:normal;font-variant:normal;font-weight:bold;font-stretch:normal;font-size:3.54002px;line-height:125%;font-family:Fredoka;-inkscape-font-specification:'Fredoka Bold';text-align:center;letter-spacing:0px;word-spacing:0px;text-anchor:middle;fill:#000000;fill-opacity:1;stroke:none;stroke-width:0.0885007px;stroke-linecap:butt;stroke-linejoin:miter;stroke-opacity:1"
       x="73.448097"
       y="67.135521"
       id="text1511-8-0-5"><tspan
         sodipodi:role="line"
         id="tspan1509-8-6-0"
         style="font-style:normal;font-variant:normal;font-weight:bold;font-stretch:normal;font-family:Fredoka;-inkscape-font-specification:'Fredoka Bold';text-align:center;text-anchor:middle;fill:#000000;fill-opacity:1;stroke:none;stroke-width:0.0885007px"
         x="73.448097"
         y="67.135521">SPACE</tspan></text><rect
       style="fill:#000000;stroke-width:6.18627;stroke-linecap:round;paint-order:markers stroke fill"
       id="rect30"
       width="10.285522"
       height="7.8183446"
       x="82.709442"
       y="62.449001"
       rx="1.984375" /><rect
       style="fill:#ffffff;stroke-width:4.91512;stroke-linecap:round;paint-order:markers stroke fill"
       id="rect31"
       width="8.2209806"
       height="4.9032822"
       x="83.737061"
       y="63.404057"
       rx="1.5766267" /><text
       xml:space="preserve"
       style="font-style:normal;font-variant:normal;font-weight:bold;font-stretch:normal;font-size:3.54002px;line-height:125%;font-family:Fredoka;-inkscape-font-specification:'Fredoka Bold';text-align:center;letter-spacing:0px;word-spacing:0px;text-anchor:middle;fill:#000000;fill-opacity:1;stroke:none;stroke-width:0.0885007px;stroke-linecap:butt;stroke-linejoin:miter;stroke-opacity:1"
       x="87.947906"
       y="67.020752"
       id="text31"><tspan
         sodipodi:role="line"
         id="tspan31"
         style="font-style:normal;font-variant:normal;font-weight:bold;font-stretch:normal;font-family:Fredoka;-inkscape-font-specification:'Fredoka Bold';text-align:center;text-anchor:middle;fill:#000000;fill-opacity:1;stroke:none;stroke-width:0.0885007px"
         x="87.947906"
         y="67.020752">F</tspan></text><rect
       style="fill:#000000;stroke-width:6.18627;stroke-linecap:round;paint-order:markers stroke fill"
       id="rect3"
       width="10.285522"
       height="7.8183446"
       x="21.759903"
       y="31.891798"
       rx="1.984375" /><rect
       style="fill:#ffffff;stroke-width:4.91512;stroke-linecap:round;paint-order:markers stroke fill"
       id="rect4"
       width="8.2209806"
       height="4.9032822"
       x="22.787527"
       y="32.846851"
       rx="1.5766265" /><path
       sodipodi:type="star"
       style="fill:#000000;fill-opacity:1;stroke:#000000;stroke-width:1.40525;stroke-linecap:round;stroke-linejoin:round;stroke-dasharray:none;stroke-opacity:1;paint-order:stroke fill markers"
       id="path4"
       inkscape:flatsided="false"
       sodipodi:sides="3"
       sodipodi:cx="19.182291"
       sodipodi:cy="43.939728"
       sodipodi:r1="2.9881642"
       sodipodi:r2="1.494082"
       sodipodi:arg1="0.52359878"
       sodipodi:arg2="1.5707963"
       inkscape:rounded="0"
       inkscape:randomized="0"
       d="m 21.770117,45.43381 -2.587826,0 -2.587826,0 1.293913,-2.241123 1.293913,-2.241123 1.293913,2.241123 z"
       inkscape:transform-center-y="-0.31651879"
       transform="matrix(0.42369734,0,0,0.42369734,18.805966,16.972348)" /><rect
       style="fill:#000000;stroke-width:6.18627;stroke-linecap:round;paint-order:markers stroke fill"
       id="rect12"
       width="10.285522"
       height="7.8183446"
       x="21.759903"
       y="38.241795"
       rx="1.984375" /><rect
       style="fill:#ffffff;stroke-width:4.91512;stroke-linecap:round;paint-order:markers stroke fill"
       id="rect13"
       width="8.2209806"
       height="4.9032822"
       x="22.787527"
       y="39.196846"
       rx="1.5766265" /><rect
       style="fill:#000000;stroke-width:6.18627;stroke-linecap:round;paint-order:markers stroke fill"
       id="rect14"
       width="10.285522"
       height="7.8183446"
       x="12.234904"
       y="38.241795"
       rx="1.984375" /><rect
       style="fill:#ffffff;stroke-width:4.91512;stroke-linecap:round;paint-order:markers stroke fill"
       id="rect15"
       width="8.2209806"
       height="4.9032822"
       x="13.262527"
       y="39.196846"
       rx="1.5766265" /><rect
       style="fill:#000000;stroke-width:6.18627;stroke-linecap:round;paint-order:markers stroke fill"
       id="rect16"
       width="10.285522"
       height="7.8183446"
       x="31.284901"
       y="38.241795"
       rx="1.984375" /><rect
       style="fill:#ffffff;stroke-width:4.91512;stroke-linecap:round;paint-order:markers stroke fill"
       id="rect17"
       width="8.2209806"
       height="4.9032822"
       x="32.312523"
       y="39.196846"
       rx="1.5766265" /><path
       sodipodi:type="star"
       style="fill:#000000;fill-opacity:1;stroke:#000000;stroke-width:1.40525;stroke-linecap:round;stroke-linejoin:round;stroke-dasharray:none;stroke-opacity:1;paint-order:stroke fill markers"
       id="path28"
       inkscape:flatsided="false"
       sodipodi:sides="3"
       sodipodi:cx="19.182291"
       sodipodi:cy="43.939728"
       sodipodi:r1="2.9881642"
       sodipodi:r2="1.494082"
       sodipodi:arg1="0.52359878"
       sodipodi:arg2="1.5707963"
       inkscape:rounded="0"
       inkscape:randomized="0"
       d="m 21.770117,45.43381 -2.587826,0 -2.587826,0 1.293913,-2.241123 1.293913,-2.241123 1.293913,2.241123 z"
       inkscape:transform-center-y="-0.31651904"
       transform="matrix(0.42369734,0,0,0.42369734,18.805966,23.268555)" /><path
       sodipodi:type="star"
       style="fill:#000000;fill-opacity:1;stroke:#000000;stroke-width:1.40525;stroke-linecap:round;stroke-linejoin:round;stroke-dasharray:none;stroke-opacity:1;paint-order:stroke fill markers"
       id="path29"
       inkscape:flatsided="false"
       sodipodi:sides="3"
       sodipodi:cx="19.182291"
       sodipodi:cy="43.939728"
       sodipodi:r1="2.9881642"
       sodipodi:r2="1.494082"
       sodipodi:arg1="0.52359878"
       sodipodi:arg2="1.5707963"
       inkscape:rounded="0"
       inkscape:randomized="0"
       d="m 21.770117,45.43381 -2.587826,0 -2.587826,0 1.293913,-2.241123 1.293913,-2.241123 1.293913,2.241123 z"
       transform="matrix(0,-0.42369734,0.42369734,0,-1.1665877,49.658416)"
       inkscape:transform-center-x="0.31651888" /><path
       sodipodi:type="star"
       style="fill:#000000;fill-opacity:1;stroke:#000000;stroke-width:1.40525;stroke-linecap:round;stroke-linejoin:round;stroke-dasharray:none;stroke-opacity:1;paint-order:stroke fill markers"
       id="path30"
       inkscape:flatsided="false"
       sodipodi:sides="3"
       sodipodi:cx="19.182291"
       sodipodi:cy="43.939728"
       sodipodi:r1="2.9881642"
       sodipodi:r2="1.494082"
       sodipodi:arg1="0.52359878"
       sodipodi:arg2="1.5707963"
       inkscape:rounded="0"
       inkscape:randomized="0"
       d="m 21.770117,45.43381 -2.587826,0 -2.587826,0 1.293913,-2.241123 1.293913,-2.241123 1.293913,2.241123 z"
       transform="matrix(0,-0.42369734,-0.42369734,0,54.985143,49.658416)"
       inkscape:transform-center-x="-0.31651876" /><rect
       style="fill:#000000;stroke-width:6.18627;stroke-linecap:round;paint-order:markers stroke fill"
       id="rect18"
       width="10.285522"
       height="7.8183446"
       x="21.759903"
       y="50.926132"
       rx="1.984375" /><rect
       style="fill:#ffffff;stroke-width:4.91512;stroke-linecap:round;paint-order:markers stroke fill"
       id="rect19"
       width="8.2209806"
       height="4.9032822"
       x="22.787527"
       y="51.881184"
       rx="1.5766265" /><rect
       style="fill:#000000;stroke-width:6.18627;stroke-linecap:round;paint-order:markers stroke fill"
       id="rect20"
       width="10.285522"
       height="7.8183446"
       x="21.759903"
       y="57.276127"
       rx="1.984375" /><rect
       style="fill:#ffffff;stroke-width:4.91512;stroke-linecap:round;paint-order:markers stroke fill"
       id="rect21"
       width="8.2209806"
       height="4.9032822"
       x="22.787527"
       y="58.231182"
       rx="1.5766265" /><rect
       style="fill:#000000;stroke-width:6.18627;stroke-linecap:round;paint-order:markers stroke fill"
       id="rect22"
       width="10.285522"
       height="7.8183446"
       x="12.234904"
       y="57.276127"
       rx="1.984375" /><rect
       style="fill:#ffffff;stroke-width:4.91512;stroke-linecap:round;paint-order:markers stroke fill"
       id="rect23"
       width="8.2209806"
       height="4.9032822"
       x="13.262527"
       y="58.231182"
       rx="1.5766265" /><rect
       style="fill:#000000;stroke-width:6.18627;stroke-linecap:round;paint-order:markers stroke fill"
       id="rect24"
       width="10.285522"
       height="7.8183446"
       x="31.284901"
       y="57.276127"
       rx="1.984375" /><rect
       style="fill:#ffffff;stroke-width:4.91512;stroke-linecap:round;paint-order:markers stroke fill"
       id="rect25"
       width="8.2209806"
       height="4.9032822"
       x="32.312523"
       y="58.231182"
       rx="1.5766265" /><text
       xml:space="preserve"
       style="font-style:normal;font-variant:normal;font-weight:bold;font-stretch:normal;font-size:3.54002px;line-height:125%;font-family:Fredoka;-inkscape-font-specification:'Fredoka Bold';text-align:center;letter-spacing:0px;word-spacing:0px;text-anchor:middle;fill:#000000;fill-opacity:1;stroke:none;stroke-width:0.0885008px;stroke-linecap:butt;stroke-linejoin:miter;stroke-opacity:1"
       x="26.892113"
       y="55.512203"
       id="text1511-8-0"><tspan
         sodipodi:role="line"
         id="tspan1509-8-6"
         style="font-style:normal;font-variant:normal;font-weight:bold;font-stretch:normal;font-family:Fredoka;-inkscape-font-specification:'Fredoka Bold';text-align:center;text-anchor:middle;fill:#000000;fill-opacity:1;stroke:none;stroke-width:0.0885008px"
         x="26.892113"
         y="55.512203">W</tspan></text><text
       xml:space="preserve"
       style="font-style:normal;font-variant:normal;font-weight:bold;font-stretch:normal;font-size:3.54002px;line-height:125%;font-family:Fredoka;-inkscape-font-specification:'Fredoka Bold';text-align:center;letter-spacing:0px;word-spacing:0px;text-anchor:middle;fill:#000000;fill-opacity:1;stroke:none;stroke-width:0.0885008px;stroke-linecap:butt;stroke-linejoin:miter;stroke-opacity:1"
       x="26.892113"
       y="61.847881"
       id="text26"><tspan
         sodipodi:role="line"
         id="tspan26"
         style="font-style:normal;font-variant:normal;font-weight:bold;font-stretch:normal;font-family:Fredoka;-inkscape-font-specification:'Fredoka Bold';text-align:center;text-anchor:middle;fill:#000000;fill-opacity:1;stroke:none;stroke-width:0.0885008px"
         x="26.892113"
         y="61.847881">S</tspan></text><text
       xml:space="preserve"
       style="font-style:normal;font-variant:normal;font-weight:bold;font-stretch:normal;font-size:3.54002px;line-height:125%;font-family:Fredoka;-inkscape-font-specification:'Fredoka Bold';text-align:center;letter-spacing:0px;word-spacing:0px;text-anchor:middle;fill:#000000;fill-opacity:1;stroke:none;stroke-width:0.0885008px;stroke-linecap:butt;stroke-linejoin:miter;stroke-opacity:1"
       x="17.367115"
       y="61.847881"
       id="text27"><tspan
         sodipodi:role="line"
         id="tspan27"
         style="font-style:normal;font-variant:normal;font-weight:bold;font-stretch:normal;font-family:Fredoka;-inkscape-font-specification:'Fredoka Bold';text-align:center;text-anchor:middle;fill:#000000;fill-opacity:1;stroke:none;stroke-width:0.0885008px"
         x="17.367115"
         y="61.847881">A</tspan></text><text
       xml:space="preserve"
       style="font-style:normal;font-variant:normal;font-weight:bold;font-stretch:normal;font-size:3.54002px;line-height:125%;font-family:Fredoka;-inkscape-font-specification:'Fredoka Bold';text-align:center;letter-spacing:0px;word-spacing:0px;text-anchor:middle;fill:#000000;fill-opacity:1;stroke:none;stroke-width:0.0885008px;stroke-linecap:butt;stroke-linejoin:miter;stroke-opacity:1"
       x="36.523357"
       y="61.847881"
       id="text28"><tspan
         sodipodi:role="line"
         id="tspan28"
         style="font-style:normal;font-variant:normal;font-weight:bold;font-stretch:normal;font-family:Fredoka;-inkscape-font-specification:'Fredoka Bold';text-align:center;text-anchor:middle;fill:#000000;fill-opacity:1;stroke:none;stroke-width:0.0885008px"
         x="36.523357"
         y="61.847881">D</tspan></text><circle
       style="fill:#ff7f2a;fill-opacity:1;stroke:none;stroke-width:0.461128;stroke-linecap:butt;stroke-linejoin:round;stroke-miterlimit:12;stroke-dasharray:0.461128, 0.461128;stroke-dashoffset:0;stroke-opacity:1;paint-order:markers fill stroke"
       id="path48"
       cx="37.290085"
       cy="33.651764"
       r="2.9997656" /><text
       xml:space="preserve"
       style="font-style:normal;font-variant:normal;font-weight:bold;font-stretch:normal;font-size:3.48798px;line-height:1;font-family:Fredoka;-inkscape-font-specification:'Fredoka Bold';text-align:center;letter-spacing:0px;word-spacing:0.100279px;text-anchor:middle;fill:#000000;fill-opacity:1;stroke:none;stroke-width:0.550882;stroke-linecap:butt;stroke-linejoin:round;stroke-miterlimit:12;stroke-dasharray:0.550882, 0.550882;stroke-dashoffset:0;stroke-opacity:1;paint-order:markers fill stroke"
       x="37.288982"
       y="34.953915"
       id="text47"><tspan
         sodipodi:role="line"
         id="tspan47"
         style="fill:#000000;stroke-width:0.550882"
         x="37.288982"
         y="34.953915">P1</tspan></text><circle
       style="fill:#ff7f2a;fill-opacity:1;stroke:none;stroke-width:0.461128;stroke-linecap:butt;stroke-linejoin:round;stroke-miterlimit:12;stroke-dasharray:0.461128, 0.461128;stroke-dashoffset:0;stroke-opacity:1;paint-order:markers fill stroke"
       id="circle48"
       cx="37.482895"
       cy="53.029224"
       r="2.9997656" /><text
       xml:space="preserve"
       style="font-style:normal;font-variant:normal;font-weight:bold;font-stretch:normal;font-size:3.48798px;line-height:1;font-family:Fredoka;-inkscape-font-specification:'Fredoka Bold';text-align:center;letter-spacing:0px;word-spacing:0.100279px;text-anchor:middle;fill:#000000;fill-opacity:1;stroke:none;stroke-width:0.550882;stroke-linecap:butt;stroke-linejoin:round;stroke-miterlimit:12;stroke-dasharray:0.550882, 0.550882;stroke-dashoffset:0;stroke-opacity:1;paint-order:markers fill stroke"
       x="37.481792"
       y="54.331379"
       id="text48"><tspan
         sodipodi:role="line"
         id="tspan48"
         style="fill:#000000;stroke-width:0.550882"
         x="37.481792"
         y="54.331379">P2</tspan></text><circle
       style="fill:#ff7f2a;fill-opacity:1;stroke:none;stroke-width:0.461128;stroke-linecap:butt;stroke-linejoin:round;stroke-miterlimit:12;stroke-dasharray:0.461128, 0.461128;stroke-dashoffset:0;stroke-opacity:1;paint-order:markers fill stroke"
       id="circle49"
       cx="73.634872"
       cy="60.645241"
       r="2.9997656" /><text
       xml:space="preserve"
       style="font-style:normal;font-variant:normal;font-weight:bold;font-stretch:normal;font-size:3.48798px;line-height:1;font-family:Fredoka;-inkscape-font-specification:'Fredoka Bold';text-align:center;letter-spacing:0px;word-spacing:0.100279px;text-anchor:middle;fill:#000000;fill-opacity:1;stroke:none;stroke-width:0.550882;stroke-linecap:butt;stroke-linejoin:round;stroke-miterlimit:12;stroke-dasharray:0.550882, 0.550882;stroke-dashoffset:0;stroke-opacity:1;paint-order:markers fill stroke"
       x="73.633774"
       y="61.947395"
       id="text49"><tspan
         sodipodi:role="line"
         id="tspan49"
         style="fill:#000000;stroke-width:0.550882"
         x="73.633774"
         y="61.947395">P1</tspan></text><circle
       style="fill:#ff7f2a;fill-opacity:1;stroke:none;stroke-width:0.461128;stroke-linecap:butt;stroke-linejoin:round;stroke-miterlimit:12;stroke-dasharray:0.461128, 0.461128;stroke-dashoffset:0;stroke-opacity:1;paint-order:markers fill stroke"
       id="circle50"
       cx="89.445335"
       cy="60.838051"
       r="2.9997656" /><text
       xml:space="preserve"
       style="font-style:normal;font-variant:normal;font-weight:bold;font-stretch:normal;font-size:3.48798px;line-height:1;font-family:Fredoka;-inkscape-font-specification:'Fredoka Bold';text-align:center;letter-spacing:0px;word-spacing:0.100279px;text-anchor:middle;fill:#000000;fill-opacity:1;stroke:none;stroke-width:0.550882;stroke-linecap:butt;stroke-linejoin:round;stroke-miterlimit:12;stroke-dasharray:0.550882, 0.550882;stroke-dashoffset:0;stroke-opacity:1;paint-order:markers fill stroke"
       x="89.444237"
       y="62.140205"
       id="text50"><tspan
         sodipodi:role="line"
         id="tspan50"
         style="fill:#000000;stroke-width:0.550882"
         x="89.444237"
         y="62.140205">P2</tspan></text><circle
       style="fill:#ff7f2a;fill-opacity:1;stroke:none;stroke-width:0.461128;stroke-linecap:butt;stroke-linejoin:round;stroke-miterlimit:12;stroke-dasharray:0.461128, 0.461128;stroke-dashoffset:0;stroke-opacity:1;paint-order:markers fill stroke"
       id="circle51"
       cx="117.8849"
       cy="48.305367"
       r="2.9997656" /><text
       xml:space="preserve"
       style="font-style:normal;font-variant:normal;font-weight:bold;font-stretch:normal;font-size:3.48798px;line-height:1;font-family:Fredoka;-inkscape-font-specification:'Fredoka Bold';text-align:center;letter-spacing:0px;word-spacing:0.100279px;text-anchor:middle;fill:#000000;fill-opacity:1;stroke:none;stroke-width:0.550882;stroke-linecap:butt;stroke-linejoin:round;stroke-miterlimit:12;stroke-dasharray:0.550882, 0.550882;stroke-dashoffset:0;stroke-opacity:1;paint-order:markers fill stroke"
       x="117.8838"
       y="49.607521"
       id="text51"><tspan
         sodipodi:role="line"
         id="tspan51"
         style="fill:#000000;stroke-width:0.550882"
         x="117.8838"
         y="49.607521">P1</tspan></text><circle
       style="fill:#ff7f2a;fill-opacity:1;stroke:none;stroke-width:0.461128;stroke-linecap:butt;stroke-linejoin:round;stroke-miterlimit:12;stroke-dasharray:0.461128, 0.461128;stroke-dashoffset:0;stroke-opacity:1;paint-order:markers fill stroke"
       id="circle52"
       cx="131.86366"
       cy="38.857647"
       r="2.9997656" /><text
       xml:space="preserve"
       style="font-style:normal;font-variant:normal;font-weight:bold;font-stretch:normal;font-size:3.48798px;line-height:1;font-family:Fredoka;-inkscape-font-specification:'Fredoka Bold';text-align:center;letter-spacing:0px;word-spacing:0.100279px;text-anchor:middle;fill:#000000;fill-opacity:1;stroke:none;stroke-width:0.550882;stroke-linecap:butt;stroke-linejoin:round;stroke-miterlimit:12;stroke-dasharray:0.550882, 0.550882;stroke-dashoffset:0;stroke-opacity:1;paint-order:markers fill stroke"
       x="131.86256"
       y="40.159801"
       id="text52"><tspan
         sodipodi:role="line"
         id="tspan52"
         style="fill:#000000;stroke-width:0.550882"
         x="131.86256"
         y="40.159801">P2</tspan></text></g></svg>
